<?xml version="1.0" encoding="UTF-8" ?>
<!DOCTYPE svg PUBLIC "-//W3C//DTD SVG 1.1//EN" "http://www.w3.org/Graphics/SVG/1.1/DTD/svg11.dtd">
<svg width="1433pt" height="800pt" viewBox="0 0 1433 800" version="1.1" xmlns="http://www.w3.org/2000/svg">
<g id="#b8b8b82f">
<path fill="#b8b8b8" opacity="0.18" d=" M 548.06 379.11 C 549.14 378.13 550.34 377.32 551.68 376.69 C 549.85 381.20 545.49 383.86 542.38 387.41 C 513.88 415.96 485.30 444.42 456.85 473.00 C 432.32 473.02 407.79 472.97 383.26 473.03 C 353.82 502.32 324.32 531.55 294.93 560.89 C 292.90 562.78 291.19 565.08 288.85 566.59 C 264.30 567.07 239.69 566.37 215.14 566.93 C 209.10 572.26 203.68 578.29 197.86 583.88 C 172.41 609.17 147.06 634.59 121.50 659.77 C 116.77 661.83 111.05 660.17 105.94 660.68 C 87.26 660.69 68.58 660.70 49.90 660.67 C 46.87 660.37 45.17 663.38 43.14 665.11 C 28.71 679.22 14.52 693.59 0.00 707.61 L 0.00 705.24 C 15.39 689.75 31.13 674.59 46.43 659.01 C 70.87 658.85 95.31 659.01 119.76 658.93 C 151.26 627.58 182.89 596.35 214.25 564.86 C 238.89 565.18 263.54 564.91 288.18 565.00 C 319.57 533.86 350.74 502.47 382.29 471.49 C 406.42 470.91 430.72 471.49 454.92 471.22 C 457.41 470.76 458.76 468.09 460.64 466.58 C 489.75 437.40 518.95 408.29 548.06 379.11 Z" />
</g>
</svg>
