<svg id="dots" xmlns="http://www.w3.org/2000/svg" viewBox="0 0 360 200"><defs><style>.cls-1{fill:red;}</style></defs><title>r-swell-dots-pattern</title><circle class="cls-1" cy="200" r="1.5"/><circle class="cls-1" cx="20" cy="200" r="1.5"/><circle class="cls-1" cx="40" cy="200" r="1.5"/><circle class="cls-1" cx="60" cy="200" r="1.5"/><circle class="cls-1" cx="80" cy="200" r="1.5"/><circle class="cls-1" cx="100" cy="200" r="1.5"/><circle class="cls-1" cx="120" cy="200" r="1.5"/><circle class="cls-1" cx="140" cy="200" r="1.5"/><circle class="cls-1" cx="160" cy="200" r="1.5"/><circle class="cls-1" cx="180" cy="200" r="1.5"/><circle class="cls-1" cx="200" cy="200" r="1.5"/><circle class="cls-1" cx="220" cy="200" r="1.5"/><circle class="cls-1" cx="240" cy="200" r="1.5"/><circle class="cls-1" cx="260" cy="200" r="1.5"/><circle class="cls-1" cx="280" cy="200" r="1.5"/><circle class="cls-1" cx="300" cy="200" r="1.5"/><circle class="cls-1" cx="320" cy="200" r="1.5"/><circle class="cls-1" cx="340" cy="200" r="1.5"/><circle class="cls-1" cx="360" cy="200" r="1.5"/><circle class="cls-1" r="1.5"/><circle class="cls-1" cx="20" r="1.5"/><circle class="cls-1" cx="40" r="1.5"/><circle class="cls-1" cx="60" r="1.5"/><circle class="cls-1" cx="80" r="1.5"/><circle class="cls-1" cx="100" r="1.5"/><circle class="cls-1" cx="120" r="1.5"/><circle class="cls-1" cx="140" r="1.5"/><circle class="cls-1" cx="160" r="1.5"/><circle class="cls-1" cx="180" r="1.5"/><circle class="cls-1" cx="200" r="1.5"/><circle class="cls-1" cx="220" r="1.5"/><circle class="cls-1" cx="240" r="1.5"/><circle class="cls-1" cx="260" r="1.5"/><circle class="cls-1" cx="280" r="1.5"/><circle class="cls-1" cx="300" r="1.5"/><circle class="cls-1" cx="320" r="1.5"/><circle class="cls-1" cx="340" r="1.5"/><circle class="cls-1" cx="360" r="1.5"/><circle class="cls-1" cy="20" r="1.5"/><circle class="cls-1" cx="20" cy="20" r="1.5"/><circle class="cls-1" cx="40" cy="20" r="1.5"/><circle class="cls-1" cx="60" cy="20" r="1.5"/><circle class="cls-1" cx="80" cy="20" r="1.5"/><circle class="cls-1" cx="100" cy="20" r="1.5"/><circle class="cls-1" cx="120" cy="20" r="1.5"/><circle class="cls-1" cx="140" cy="20" r="1.5"/><circle class="cls-1" cx="160" cy="20" r="1.5"/><circle class="cls-1" cx="180" cy="20" r="1.5"/><circle class="cls-1" cx="200" cy="20" r="1.5"/><circle class="cls-1" cx="220" cy="20" r="1.5"/><circle class="cls-1" cx="240" cy="20" r="1.5"/><circle class="cls-1" cx="260" cy="20" r="1.5"/><circle class="cls-1" cx="280" cy="20" r="1.5"/><circle class="cls-1" cx="300" cy="20" r="1.5"/><circle class="cls-1" cx="320" cy="20" r="1.5"/><circle class="cls-1" cx="340" cy="20" r="1.5"/><circle class="cls-1" cx="360" cy="20" r="1.5"/><circle class="cls-1" cy="40" r="1.5"/><circle class="cls-1" cx="20" cy="40" r="1.5"/><circle class="cls-1" cx="40" cy="40" r="1.5"/><circle class="cls-1" cx="60" cy="40" r="1.5"/><circle class="cls-1" cx="80" cy="40" r="1.5"/><circle class="cls-1" cx="100" cy="40" r="1.5"/><circle class="cls-1" cx="120" cy="40" r="1.5"/><circle class="cls-1" cx="140" cy="40" r="1.5"/><circle class="cls-1" cx="160" cy="40" r="1.5"/><circle class="cls-1" cx="180" cy="40" r="1.5"/><circle class="cls-1" cx="200" cy="40" r="1.5"/><circle class="cls-1" cx="220" cy="40" r="1.5"/><circle class="cls-1" cx="240" cy="40" r="1.5"/><circle class="cls-1" cx="260" cy="40" r="1.5"/><circle class="cls-1" cx="280" cy="40" r="1.5"/><circle class="cls-1" cx="300" cy="40" r="1.5"/><circle class="cls-1" cx="320" cy="40" r="1.5"/><circle class="cls-1" cx="340" cy="40" r="1.5"/><circle class="cls-1" cx="360" cy="40" r="1.5"/><circle class="cls-1" cy="60" r="1.5"/><circle class="cls-1" cx="20" cy="60" r="1.5"/><circle class="cls-1" cx="40" cy="60" r="1.5"/><circle class="cls-1" cx="60" cy="60" r="1.5"/><circle class="cls-1" cx="80" cy="60" r="1.5"/><circle class="cls-1" cx="100" cy="60" r="1.5"/><circle class="cls-1" cx="120" cy="60" r="1.5"/><circle class="cls-1" cx="140" cy="60" r="1.5"/><circle class="cls-1" cx="160" cy="60" r="1.5"/><circle class="cls-1" cx="180" cy="60" r="1.5"/><circle class="cls-1" cx="200" cy="60" r="1.5"/><circle class="cls-1" cx="220" cy="60" r="1.5"/><circle class="cls-1" cx="240" cy="60" r="1.5"/><circle class="cls-1" cx="260" cy="60" r="1.5"/><circle class="cls-1" cx="280" cy="60" r="1.5"/><circle class="cls-1" cx="300" cy="60" r="1.5"/><circle class="cls-1" cx="320" cy="60" r="1.5"/><circle class="cls-1" cx="340" cy="60" r="1.5"/><circle class="cls-1" cx="360" cy="60" r="1.5"/><circle class="cls-1" cy="80" r="1.5"/><circle class="cls-1" cx="20" cy="80" r="1.5"/><circle class="cls-1" cx="40" cy="80" r="1.5"/><circle class="cls-1" cx="60" cy="80" r="1.5"/><circle class="cls-1" cx="80" cy="80" r="1.5"/><circle class="cls-1" cx="100" cy="80" r="1.5"/><circle class="cls-1" cx="120" cy="80" r="1.5"/><circle class="cls-1" cx="140" cy="80" r="1.5"/><circle class="cls-1" cx="160" cy="80" r="1.5"/><circle class="cls-1" cx="180" cy="80" r="1.5"/><circle class="cls-1" cx="200" cy="80" r="1.5"/><circle class="cls-1" cx="220" cy="80" r="1.5"/><circle class="cls-1" cx="240" cy="80" r="1.5"/><circle class="cls-1" cx="260" cy="80" r="1.5"/><circle class="cls-1" cx="280" cy="80" r="1.5"/><circle class="cls-1" cx="300" cy="80" r="1.5"/><circle class="cls-1" cx="320" cy="80" r="1.5"/><circle class="cls-1" cx="340" cy="80" r="1.5"/><circle class="cls-1" cx="360" cy="80" r="1.5"/><circle class="cls-1" cy="100" r="1.5"/><circle class="cls-1" cx="20" cy="100" r="1.5"/><circle class="cls-1" cx="40" cy="100" r="1.5"/><circle class="cls-1" cx="60" cy="100" r="1.5"/><circle class="cls-1" cx="80" cy="100" r="1.5"/><circle class="cls-1" cx="100" cy="100" r="1.5"/><circle class="cls-1" cx="120" cy="100" r="1.5"/><circle class="cls-1" cx="140" cy="100" r="1.5"/><circle class="cls-1" cx="160" cy="100" r="1.5"/><circle class="cls-1" cx="180" cy="100" r="1.5"/><circle class="cls-1" cx="200" cy="100" r="1.5"/><circle class="cls-1" cx="220" cy="100" r="1.5"/><circle class="cls-1" cx="240" cy="100" r="1.5"/><circle class="cls-1" cx="260" cy="100" r="1.5"/><circle class="cls-1" cx="280" cy="100" r="1.5"/><circle class="cls-1" cx="300" cy="100" r="1.5"/><circle class="cls-1" cx="320" cy="100" r="1.5"/><circle class="cls-1" cx="340" cy="100" r="1.5"/><circle class="cls-1" cx="360" cy="100" r="1.5"/><circle class="cls-1" cy="120" r="1.5"/><circle class="cls-1" cx="20" cy="120" r="1.5"/><circle class="cls-1" cx="40" cy="120" r="1.5"/><circle class="cls-1" cx="60" cy="120" r="1.5"/><circle class="cls-1" cx="80" cy="120" r="1.5"/><circle class="cls-1" cx="100" cy="120" r="1.5"/><circle class="cls-1" cx="120" cy="120" r="1.5"/><circle class="cls-1" cx="140" cy="120" r="1.5"/><circle class="cls-1" cx="160" cy="120" r="1.5"/><circle class="cls-1" cx="180" cy="120" r="1.5"/><circle class="cls-1" cx="200" cy="120" r="1.5"/><circle class="cls-1" cx="220" cy="120" r="1.5"/><circle class="cls-1" cx="240" cy="120" r="1.5"/><circle class="cls-1" cx="260" cy="120" r="1.5"/><circle class="cls-1" cx="280" cy="120" r="1.5"/><circle class="cls-1" cx="300" cy="120" r="1.5"/><circle class="cls-1" cx="320" cy="120" r="1.5"/><circle class="cls-1" cx="340" cy="120" r="1.5"/><circle class="cls-1" cx="360" cy="120" r="1.5"/><circle class="cls-1" cy="140" r="1.5"/><circle class="cls-1" cx="20" cy="140" r="1.5"/><circle class="cls-1" cx="40" cy="140" r="1.5"/><circle class="cls-1" cx="60" cy="140" r="1.5"/><circle class="cls-1" cx="80" cy="140" r="1.5"/><circle class="cls-1" cx="100" cy="140" r="1.5"/><circle class="cls-1" cx="120" cy="140" r="1.5"/><circle class="cls-1" cx="140" cy="140" r="1.5"/><circle class="cls-1" cx="160" cy="140" r="1.5"/><circle class="cls-1" cx="180" cy="140" r="1.5"/><circle class="cls-1" cx="200" cy="140" r="1.5"/><circle class="cls-1" cx="220" cy="140" r="1.5"/><circle class="cls-1" cx="240" cy="140" r="1.5"/><circle class="cls-1" cx="260" cy="140" r="1.5"/><circle class="cls-1" cx="280" cy="140" r="1.5"/><circle class="cls-1" cx="300" cy="140" r="1.5"/><circle class="cls-1" cx="320" cy="140" r="1.5"/><circle class="cls-1" cx="340" cy="140" r="1.5"/><circle class="cls-1" cx="360" cy="140" r="1.5"/><circle class="cls-1" cy="160" r="1.5"/><circle class="cls-1" cx="20" cy="160" r="1.5"/><circle class="cls-1" cx="40" cy="160" r="1.5"/><circle class="cls-1" cx="60" cy="160" r="1.5"/><circle class="cls-1" cx="80" cy="160" r="1.5"/><circle class="cls-1" cx="100" cy="160" r="1.5"/><circle class="cls-1" cx="120" cy="160" r="1.5"/><circle class="cls-1" cx="140" cy="160" r="1.5"/><circle class="cls-1" cx="160" cy="160" r="1.5"/><circle class="cls-1" cx="180" cy="160" r="1.5"/><circle class="cls-1" cx="200" cy="160" r="1.5"/><circle class="cls-1" cx="220" cy="160" r="1.5"/><circle class="cls-1" cx="240" cy="160" r="1.5"/><circle class="cls-1" cx="260" cy="160" r="1.5"/><circle class="cls-1" cx="280" cy="160" r="1.5"/><circle class="cls-1" cx="300" cy="160" r="1.5"/><circle class="cls-1" cx="320" cy="160" r="1.5"/><circle class="cls-1" cx="340" cy="160" r="1.5"/><circle class="cls-1" cx="360" cy="160" r="1.5"/><circle class="cls-1" cy="180" r="1.5"/><circle class="cls-1" cx="20" cy="180" r="1.5"/><circle class="cls-1" cx="40" cy="180" r="1.5"/><circle class="cls-1" cx="60" cy="180" r="1.5"/><circle class="cls-1" cx="80" cy="180" r="1.5"/><circle class="cls-1" cx="100" cy="180" r="1.5"/><circle class="cls-1" cx="120" cy="180" r="1.5"/><circle class="cls-1" cx="140" cy="180" r="1.5"/><circle class="cls-1" cx="160" cy="180" r="1.5"/><circle class="cls-1" cx="180" cy="180" r="1.5"/><circle class="cls-1" cx="200" cy="180" r="1.5"/><circle class="cls-1" cx="220" cy="180" r="1.5"/><circle class="cls-1" cx="240" cy="180" r="1.5"/><circle class="cls-1" cx="260" cy="180" r="1.5"/><circle class="cls-1" cx="280" cy="180" r="1.5"/><circle class="cls-1" cx="300" cy="180" r="1.5"/><circle class="cls-1" cx="320" cy="180" r="1.5"/><circle class="cls-1" cx="340" cy="180" r="1.5"/><circle class="cls-1" cx="360" cy="180" r="1.5"/></svg>